REM DIRINDEX 1\3,1\2\4,1\2\5,1\2\6
REM DIRNAME folder01,folder02,folder03,folder04,folder05,folder06
TITLE ""
FILE "080.mp3" MP3
  TRACK 01 AUDIO
    TITLE "3:cjc137_3278"
    INDEX 01 00:00:00
  TRACK 02 AUDIO
    TITLE "0:"
    INDEX 01 00:04:13
  TRACK 03 AUDIO
    TITLE "4:cjc137_3279"
    INDEX 01 00:05:22
  TRACK 04 AUDIO
    TITLE "0:"
    INDEX 01 00:06:33
  TRACK 05 AUDIO
    TITLE "6:cjc137_3280"
    INDEX 01 00:06:41
  TRACK 06 AUDIO
    TITLE "0:"
    INDEX 01 00:07:39
  TRACK 07 AUDIO
    TITLE "5:cjc137_3281"
    INDEX 01 00:07:49
  TRACK 08 AUDIO
    TITLE "0:"
    INDEX 01 00:08:60
  TRACK 09 AUDIO
    TITLE "4:cjc137_3282"
    INDEX 01 00:09:69
  TRACK 10 AUDIO
    TITLE "0:"
    INDEX 01 00:11:07
  TRACK 11 AUDIO
    TITLE "6:cjc137_3283"
    INDEX 01 00:11:11
  TRACK 12 AUDIO
    TITLE "0:"
    INDEX 01 00:12:07
  TRACK 13 AUDIO
    TITLE "5:cjc137_3284"
    INDEX 01 00:12:12
  TRACK 14 AUDIO
    TITLE "0:"
    INDEX 01 00:13:24
  TRACK 15 AUDIO
    TITLE "4:cjc137_3285"
    INDEX 01 00:14:33
  TRACK 16 AUDIO
    TITLE "0:"
    INDEX 01 00:15:42
  TRACK 17 AUDIO
    TITLE "6:cjc137_3286"
    INDEX 01 00:15:46
  TRACK 18 AUDIO
    TITLE "0:"
    INDEX 01 00:16:49
  TRACK 19 AUDIO
    TITLE "5:cjc137_3287"
    INDEX 01 00:16:53
  TRACK 20 AUDIO
    TITLE "0:"
    INDEX 01 00:17:61
  TRACK 21 AUDIO
    TITLE "4:cjc137_3288"
    INDEX 01 00:18:66
  TRACK 22 AUDIO
    TITLE "0:"
    INDEX 01 00:19:71
  TRACK 23 AUDIO
    TITLE "6:cjc137_3289"
    INDEX 01 00:20:02
  TRACK 24 AUDIO
    TITLE "0:"
    INDEX 01 00:20:73
  TRACK 25 AUDIO
    TITLE "5:cjc137_3290"
    INDEX 01 00:21:04
  TRACK 26 AUDIO
    TITLE "0:"
    INDEX 01 00:22:09
  TRACK 27 AUDIO
    TITLE "4:cjc137_3291"
    INDEX 01 00:23:14
  TRACK 28 AUDIO
    TITLE "0:"
    INDEX 01 00:24:18
  TRACK 29 AUDIO
    TITLE "6:cjc137_3292"
    INDEX 01 00:24:33
  TRACK 30 AUDIO
    TITLE "0:"
    INDEX 01 00:25:72
  TRACK 31 AUDIO
    TITLE "5:cjc137_3293"
    INDEX 01 00:26:03
  TRACK 32 AUDIO
    TITLE "0:"
    INDEX 01 00:27:08
  TRACK 33 AUDIO
    TITLE "4:cjc137_3294"
    INDEX 01 00:28:23
  TRACK 34 AUDIO
    TITLE "0:"
    INDEX 01 00:29:38
  TRACK 35 AUDIO
    TITLE "6:cjc137_3295"
    INDEX 01 00:29:46
  TRACK 36 AUDIO
    TITLE "0:"
    INDEX 01 00:30:67
  TRACK 37 AUDIO
    TITLE "5:cjc137_3296"
    INDEX 01 00:30:73
  TRACK 38 AUDIO
    TITLE "0:"
    INDEX 01 00:32:13
  TRACK 39 AUDIO
    TITLE "4:cjc137_3297"
    INDEX 01 00:33:22
  TRACK 40 AUDIO
    TITLE "0:"
    INDEX 01 00:34:30
  TRACK 41 AUDIO
    TITLE "6:cjc137_3298"
    INDEX 01 00:34:36
  TRACK 42 AUDIO
    TITLE "0:"
    INDEX 01 00:35:23
  TRACK 43 AUDIO
    TITLE "5:cjc137_3299"
    INDEX 01 00:35:29
  TRACK 44 AUDIO
    TITLE "0:"
    INDEX 01 00:36:36
  TRACK 45 AUDIO
    TITLE "4:cjc137_3300"
    INDEX 01 00:37:42
  TRACK 46 AUDIO
    TITLE "0:"
    INDEX 01 00:38:49
  TRACK 47 AUDIO
    TITLE "6:cjc137_3301"
    INDEX 01 00:38:53
  TRACK 48 AUDIO
    TITLE "0:"
    INDEX 01 00:39:66
  TRACK 49 AUDIO
    TITLE "5:cjc137_3302"
    INDEX 01 00:39:70
  TRACK 50 AUDIO
    TITLE "0:"
    INDEX 01 00:41:02
  TRACK 51 AUDIO
    TITLE "4:cjc137_3303"
    INDEX 01 00:42:08
  TRACK 52 AUDIO
    TITLE "0:"
    INDEX 01 00:43:15
  TRACK 53 AUDIO
    TITLE "6:cjc137_3304"
    INDEX 01 00:43:21
  TRACK 54 AUDIO
    TITLE "0:"
    INDEX 01 00:44:22
  TRACK 55 AUDIO
    TITLE "5:cjc137_3305"
    INDEX 01 00:44:28
  TRACK 56 AUDIO
    TITLE "0:"
    INDEX 01 00:45:35
  TRACK 57 AUDIO
    TITLE "4:cjc137_3306"
    INDEX 01 00:46:43
  TRACK 58 AUDIO
    TITLE "0:"
    INDEX 01 00:47:70
  TRACK 59 AUDIO
    TITLE "6:cjc137_3307"
    INDEX 01 00:48:00
  TRACK 60 AUDIO
    TITLE "0:"
    INDEX 01 00:49:06
  TRACK 61 AUDIO
    TITLE "5:cjc137_3308"
    INDEX 01 00:49:10
  TRACK 62 AUDIO
    TITLE "0:"
    INDEX 01 00:50:37
  TRACK 63 AUDIO
    TITLE "4:cjc137_3309"
    INDEX 01 00:51:46
  TRACK 64 AUDIO
    TITLE "0:"
    INDEX 01 00:52:55
  TRACK 65 AUDIO
    TITLE "6:cjc137_3310"
    INDEX 01 00:52:61
  TRACK 66 AUDIO
    TITLE "0:"
    INDEX 01 00:53:68
  TRACK 67 AUDIO
    TITLE "5:cjc137_3311"
    INDEX 01 00:53:72
  TRACK 68 AUDIO
    TITLE "0:"
    INDEX 01 00:55:06
  TRACK 69 AUDIO
    TITLE "4:cjc137_3312"
    INDEX 01 00:56:14
  TRACK 70 AUDIO
    TITLE "0:"
    INDEX 01 00:57:23
  TRACK 71 AUDIO
    TITLE "6:cjc137_3313"
    INDEX 01 00:57:27
  TRACK 72 AUDIO
    TITLE "0:"
    INDEX 01 00:58:38
  TRACK 73 AUDIO
    TITLE "5:cjc137_3314"
    INDEX 01 00:58:42
  TRACK 74 AUDIO
    TITLE "0:"
    INDEX 01 00:59:53
  TRACK 75 AUDIO
    TITLE "4:cjc137_3315"
    INDEX 01 01:00:57
  TRACK 76 AUDIO
    TITLE "0:"
    INDEX 01 01:01:62
  TRACK 77 AUDIO
    TITLE "6:cjc137_3316"
    INDEX 01 01:01:66
  TRACK 78 AUDIO
    TITLE "0:"
    INDEX 01 01:02:54
  TRACK 79 AUDIO
    TITLE "5:cjc137_3317"
    INDEX 01 01:02:57
  TRACK 80 AUDIO
    TITLE "0:"
    INDEX 01 01:03:61
  TRACK 81 AUDIO
    TITLE "4:cjc137_3318"
    INDEX 01 01:04:66
  TRACK 82 AUDIO
    TITLE "0:"
    INDEX 01 01:05:68
  TRACK 83 AUDIO
    TITLE "6:cjc137_3319"
    INDEX 01 01:05:71
  TRACK 84 AUDIO
    TITLE "0:"
    INDEX 01 01:07:08
  TRACK 85 AUDIO
    TITLE "5:cjc137_3320"
    INDEX 01 01:07:14
  TRACK 86 AUDIO
    TITLE "0:"
    INDEX 01 01:08:13
